<svg width="60" height="60" viewBox="0 0 60 60" fill="none" xmlns="http://www.w3.org/2000/svg">
<path d="M30.7071 22.2929C30.3166 21.9024 29.6834 21.9024 29.2929 22.2929L22.9289 28.6569C22.5384 29.0474 22.5384 29.6805 22.9289 30.0711C23.3195 30.4616 23.9526 30.4616 24.3431 30.0711L30 24.4142L35.6569 30.0711C36.0474 30.4616 36.6805 30.4616 37.0711 30.0711C37.4616 29.6805 37.4616 29.0474 37.0711 28.6569L30.7071 22.2929ZM31 39L31 23L29 23L29 39L31 39Z" fill="#3E4A59"/>
<rect x="59.5" y="0.5" width="59" height="59" rx="29.5" transform="rotate(90 59.5 0.5)" stroke="#3E4A59"/>
</svg>
