<svg width="24" height="17" viewBox="0 0 24 17" fill="none" xmlns="http://www.w3.org/2000/svg">
<path fill-rule="evenodd" clip-rule="evenodd" d="M20.9441 0.489504C21.9232 0.753176 22.6952 1.52501 22.9587 2.50419C23.4483 4.2927 23.4295 8.02074 23.4295 8.02074C23.4295 8.02074 23.4295 11.7298 22.9588 13.5185C22.6952 14.4975 21.9233 15.2695 20.9441 15.533C19.1555 16.0038 12.0009 16.0038 12.0009 16.0038C12.0009 16.0038 4.86497 16.0038 3.05763 15.5143C2.07845 15.2506 1.30661 14.4786 1.04294 13.4996C0.572266 11.7298 0.572266 8.00191 0.572266 8.00191C0.572266 8.00191 0.572266 4.2927 1.04294 2.50419C1.30643 1.52519 2.09728 0.734343 3.05745 0.470844C4.84614 0 12.0007 0 12.0007 0C12.0007 0 19.1555 0 20.9441 0.489504ZM15.6723 8.00196L9.72273 11.4287V4.57523L15.6723 8.00196Z" fill="#479BFF"/>
</svg>
