<svg width="18" height="18" viewBox="0 0 18 18" fill="none" xmlns="http://www.w3.org/2000/svg">
<path d="M9.18538 7.71094H17.8565C17.9522 8.23438 18 8.73438 18 9.21094C18 10.9062 17.6372 12.4199 16.9116 13.752C16.186 15.084 15.1515 16.125 13.808 16.875C12.4645 17.625 10.9236 18 9.18538 18C7.93356 18 6.74153 17.7637 5.6093 17.291C4.47708 16.8184 3.50033 16.1797 2.67907 15.375C1.85781 14.5703 1.20598 13.6133 0.723588 12.5039C0.241196 11.3945 0 10.2266 0 9C0 7.77344 0.241196 6.60547 0.723588 5.49609C1.20598 4.38672 1.85781 3.42969 2.67907 2.625C3.50033 1.82031 4.47708 1.18164 5.6093 0.708984C6.74153 0.236328 7.93356 0 9.18538 0C11.5774 0 13.6306 0.785156 15.3449 2.35547L12.8452 4.71094C11.8645 3.78125 10.6445 3.31641 9.18538 3.31641C8.15681 3.31641 7.20598 3.57031 6.33289 4.07812C5.4598 4.58594 4.76811 5.27539 4.25781 6.14648C3.74751 7.01758 3.49236 7.96875 3.49236 9C3.49236 10.0312 3.74751 10.9824 4.25781 11.8535C4.76811 12.7246 5.4598 13.4141 6.33289 13.9219C7.20598 14.4297 8.15681 14.6836 9.18538 14.6836C9.87907 14.6836 10.5169 14.5898 11.099 14.4023C11.6811 14.2148 12.1595 13.9805 12.5342 13.6992C12.909 13.418 13.2359 13.0977 13.5149 12.7383C13.794 12.3789 13.9993 12.0391 14.1309 11.7188C14.2625 11.3984 14.3522 11.0938 14.4 10.8047H9.18538V7.71094Z" fill="#479BFF"/>
</svg>
