<svg width="20" height="20" viewBox="0 0 20 20" fill="none" xmlns="http://www.w3.org/2000/svg">
<path d="M15.3383 5.86167C16.0011 5.86167 16.5383 5.32441 16.5383 4.66166C16.5383 3.99892 16.0011 3.46166 15.3383 3.46166C14.6756 3.46166 14.1383 3.99892 14.1383 4.66166C14.1383 5.32441 14.6756 5.86167 15.3383 5.86167Z" fill="#3E4A59"/>
<path d="M10.0001 4.865C8.98447 4.865 7.99167 5.16616 7.14722 5.7304C6.30277 6.29464 5.64461 7.09662 5.25595 8.03492C4.8673 8.97322 4.76561 10.0057 4.96374 11.0018C5.16188 11.9979 5.65094 12.9129 6.36908 13.631C7.08722 14.3491 8.00219 14.8382 8.99829 15.0363C9.99438 15.2345 11.0269 15.1328 11.9652 14.7441C12.9035 14.3555 13.7054 13.6973 14.2697 12.8529C14.8339 12.0084 15.1351 11.0156 15.1351 10C15.1351 8.63811 14.5941 7.33201 13.6311 6.36901C12.6681 5.40601 11.362 4.865 10.0001 4.865ZM10.0001 13.3333C9.3408 13.3333 8.69634 13.1378 8.14817 12.7716C7.60001 12.4053 7.17277 11.8847 6.92048 11.2756C6.66818 10.6665 6.60217 9.9963 6.73079 9.3497C6.85941 8.7031 7.17688 8.10915 7.64305 7.64298C8.10923 7.1768 8.70317 6.85933 9.34977 6.73072C9.99638 6.6021 10.6666 6.66811 11.2757 6.9204C11.8848 7.17269 12.4054 7.59994 12.7716 8.1481C13.1379 8.69626 13.3334 9.34073 13.3334 10C13.3334 10.8841 12.9822 11.7319 12.3571 12.357C11.732 12.9821 10.8841 13.3333 10.0001 13.3333Z" fill="#3E4A59"/>
<path d="M10 1.80167C12.67 1.80167 12.9867 1.81167 14.0408 1.86C14.6749 1.86753 15.3029 1.98394 15.8975 2.20417C16.3289 2.37058 16.7207 2.62545 17.0476 2.9524C17.3745 3.27934 17.6294 3.67111 17.7958 4.1025C18.0161 4.69711 18.1325 5.32513 18.14 5.95917C18.1883 7.01333 18.1983 7.33 18.1983 10.0008C18.1983 12.6717 18.1883 12.9867 18.14 14.0408C18.1325 14.6749 18.0161 15.3029 17.7958 15.8975C17.6294 16.3289 17.3745 16.7207 17.0476 17.0476C16.7207 17.3745 16.3289 17.6294 15.8975 17.7958C15.3029 18.0161 14.6749 18.1325 14.0408 18.14C12.9867 18.1883 12.67 18.1983 10 18.1983C7.33 18.1983 7.01333 18.1883 5.95917 18.14C5.32513 18.1325 4.69711 18.0161 4.1025 17.7958C3.67111 17.6294 3.27934 17.3745 2.9524 17.0476C2.62545 16.7207 2.37058 16.3289 2.20417 15.8975C1.98394 15.3029 1.86753 14.6749 1.86 14.0408C1.81167 12.9867 1.80167 12.67 1.80167 10C1.80167 7.33 1.81167 7.01333 1.86 5.95917C1.86753 5.32513 1.98394 4.69711 2.20417 4.1025C2.37058 3.67111 2.62545 3.27934 2.9524 2.9524C3.27934 2.62545 3.67111 2.37058 4.1025 2.20417C4.69711 1.98394 5.32513 1.86753 5.95917 1.86C7.01333 1.81167 7.33 1.80167 10 1.80167ZM10 0C7.28417 0 6.94333 0.0116667 5.87667 0.06C5.04731 0.0767468 4.2268 0.233974 3.45 0.525C2.7856 0.781914 2.18222 1.17481 1.67851 1.67851C1.17481 2.18222 0.781914 2.7856 0.525 3.45C0.233882 4.22706 0.0766528 5.04786 0.06 5.8775C0.0116667 6.94417 0 7.28333 0 10C0 12.7167 0.0116667 13.0567 0.06 14.1233C0.0767468 14.9527 0.233974 15.7732 0.525 16.55C0.781914 17.2144 1.17481 17.8178 1.67851 18.3215C2.18222 18.8252 2.7856 19.2181 3.45 19.475C4.22706 19.7661 5.04786 19.9233 5.8775 19.94C6.94417 19.9883 7.28417 20 10 20C12.7158 20 13.0567 19.9883 14.1233 19.94C14.953 19.9233 15.7738 19.7661 16.5508 19.475C17.2152 19.2181 17.8186 18.8252 18.3223 18.3215C18.826 17.8178 19.2189 17.2144 19.4758 16.55C19.7667 15.7729 19.9236 14.9521 19.94 14.1225C19.9883 13.0558 20 12.7167 20 10C20 7.28333 19.9883 6.94333 19.94 5.87667C19.9233 5.04731 19.766 4.2268 19.475 3.45C19.2181 2.7856 18.8252 2.18222 18.3215 1.67851C17.8178 1.17481 17.2144 0.781914 16.55 0.525C15.7729 0.234167 14.9521 0.0772193 14.1225 0.0608333C13.0558 0.0108333 12.7167 0 10 0Z" fill="#3E4A59"/>
</svg>
