<svg width="24" height="13" viewBox="0 0 24 13" fill="none" xmlns="http://www.w3.org/2000/svg">
<path fill-rule="evenodd" clip-rule="evenodd" d="M11.7784 12.9183H13.2336C13.2336 12.9183 13.6701 12.8496 13.8884 12.6434C14.1066 12.4373 14.1066 12.025 14.1066 12.025C14.1066 12.025 14.1066 10.2384 14.9797 9.96356C15.8528 9.68871 17.0169 11.7501 18.181 12.506C19.0541 13.1244 19.7089 12.987 19.7089 12.987L22.9102 12.9183C22.9102 12.9183 24.5836 12.8496 23.7832 11.544C23.7105 11.4753 23.3467 10.6507 21.3823 8.93285C19.3451 7.14628 19.6361 7.48985 22.0371 4.39771C23.4922 2.54243 24.0743 1.443 23.9287 0.893284C23.7832 0.412285 22.6919 0.549713 22.6919 0.549713H19.0541C19.0541 0.549713 18.763 0.480999 18.6175 0.618428C18.3993 0.755856 18.3265 0.961999 18.3265 0.961999C18.3265 0.961999 17.7445 2.405 17.0169 3.64185C15.4163 6.18428 14.7614 6.32171 14.5432 6.18428C13.9611 5.84071 14.1066 4.67257 14.1066 3.91671C14.1066 1.443 14.5432 0.412285 13.3063 0.137428C12.9425 0.0687134 12.6515 0 11.6329 0C10.3233 0 9.23197 -2.6622e-07 8.64992 0.274857C8.21338 0.480999 7.92236 0.893284 8.14062 0.893284C8.35889 0.893284 8.94094 1.03071 9.23197 1.37428C9.52299 1.99271 9.52299 3.02343 9.52299 3.02343C9.52299 3.02343 9.74126 5.97814 9.0137 6.32171C8.50441 6.59657 7.8496 6.04685 6.39447 3.71057C5.66691 2.54243 5.08486 1.16814 5.08486 1.16814C5.08486 1.16814 5.0121 0.893285 4.79383 0.755857C4.57556 0.618428 4.21178 0.549713 4.21178 0.549713H0.792235C0.792235 0.549713 0.282941 0.549714 0.0646723 0.755857C-0.0808404 0.962 0.0646723 1.30557 0.0646723 1.30557C0.0646723 1.30557 2.75666 7.21499 5.81242 10.2384C8.64992 13.1244 11.7784 12.9183 11.7784 12.9183Z" fill="#3E4A59"/>
</svg>
